<?xml version="1.0" encoding="utf-8"?>
<!-- Generator: Adobe Illustrator 16.0.0, SVG Export Plug-In . SVG Version: 6.00 Build 0)  -->
<!DOCTYPE svg PUBLIC "-//W3C//DTD SVG 1.1//EN" "http://www.w3.org/Graphics/SVG/1.1/DTD/svg11.dtd">
<svg version="1.1" id="Layer_1" xmlns="http://www.w3.org/2000/svg" xmlns:xlink="http://www.w3.org/1999/xlink" x="0px" y="0px"
	 width="229px" height="94px" viewBox="0 0 229 94" enable-background="new 0 0 229 94" xml:space="preserve">
<title>logo mambo home</title>
<desc>Created with Sketch.</desc>
<g id="Page-1">
	<g id="T2-Mambo-home" transform="translate(-270.000000, -279.000000)">
		<g id="logo-mambo-home" transform="translate(274.000000, 283.000000)">
			<g id="icono">
				<path fill="#FFFFFF" d="M3.501,43.344h-7c0-25.821,20.952-46.829,46.706-46.829v7C21.313,3.515,3.501,21.382,3.501,43.344z"/>
				<path opacity="0.6" fill="#FFFFFF" enable-background="new    " d="M89.522,43.344h-7c0-21.961-17.811-39.829-39.704-39.829v-7
					C68.571-3.485,89.522,17.522,89.522,43.344z"/>
				<path fill="#FFFFFF" d="M42.818,89.784v-7c21.893,0,39.704-17.867,39.704-39.829h7C89.522,68.776,68.571,89.784,42.818,89.784z"
					/>
				<path opacity="0.6" fill="#FFFFFF" enable-background="new    " d="M43.207,89.784c-25.754,0-46.706-21.008-46.706-46.829h7
					c0,21.962,17.812,39.829,39.706,39.829V89.784z"/>
			</g>
			<g enable-background="new    ">
				<path fill="#FFFFFF" d="M113.197,34.266v-7.758c0-1.224-0.049-2.08-0.146-2.57c-0.099-0.489-0.146-0.783-0.146-0.881
					c0-0.261,0.33-0.456,0.99-0.587c0.66-0.131,1.154-0.196,1.48-0.196s0.543,0.033,0.648,0.098s0.19,0.168,0.258,0.307
					c0.064,0.139,0.113,0.253,0.146,0.343c0.031,0.09,0.067,0.24,0.108,0.452c0.041,0.213,0.069,0.343,0.086,0.392
					c0.394-0.521,0.91-0.962,1.556-1.321c0.645-0.358,1.334-0.538,2.067-0.538c1.68,0,2.756,0.62,3.229,1.859
					c0.407-0.521,0.945-0.962,1.615-1.321c0.668-0.358,1.387-0.538,2.153-0.538c1.224,0,2.125,0.322,2.704,0.966
					c0.578,0.646,0.869,1.645,0.869,2.998v8.297c0,0.522-0.49,0.783-1.469,0.783h-0.687c-0.979,0-1.47-0.261-1.47-0.783V26.51
					c0-1.012-0.479-1.518-1.442-1.518c-0.799,0-1.442,0.474-1.935,1.42v7.855c0,0.522-0.488,0.783-1.469,0.783h-0.685
					c-0.979,0-1.47-0.261-1.47-0.783v-7.758c0-1.012-0.48-1.518-1.443-1.518c-0.799,0-1.443,0.474-1.934,1.42v7.855
					c0,0.522-0.488,0.783-1.469,0.783h-0.685C113.688,35.049,113.197,34.788,113.197,34.266z"/>
				<path fill="#FFFFFF" d="M133.461,31.623c0-0.457,0.041-0.873,0.123-1.249c0.081-0.375,0.27-0.778,0.562-1.211
					s0.686-0.787,1.174-1.064c1.158-0.686,2.881-1.028,5.164-1.028v-0.808c0-0.93-0.637-1.395-1.908-1.395
					c-0.896,0-1.771,0.195-2.619,0.587c-0.293,0.131-0.465,0.196-0.514,0.196c-0.244,0-0.519-0.253-0.82-0.759
					c-0.303-0.506-0.452-0.905-0.452-1.199c0-0.44,0.452-0.832,1.358-1.175c0.904-0.343,2.01-0.514,3.316-0.514
					c3.508,0,5.262,1.362,5.262,4.087v4.601c0,1.012,0.049,1.86,0.146,2.546l0.146,1.003c0,0.262-0.33,0.457-0.989,0.588
					c-0.662,0.13-1.155,0.195-1.481,0.195s-0.542-0.032-0.648-0.098c-0.105-0.066-0.191-0.176-0.256-0.331
					c-0.065-0.154-0.114-0.276-0.146-0.366c-0.033-0.09-0.07-0.249-0.109-0.478c-0.041-0.229-0.07-0.367-0.086-0.416
					c-0.295,0.522-0.801,0.963-1.518,1.321c-0.719,0.358-1.412,0.538-2.081,0.538c-1.257,0-2.175-0.326-2.753-0.979
					C133.75,33.564,133.461,32.699,133.461,31.623z M137.059,31.256c0,0.326,0.105,0.587,0.318,0.783
					c0.212,0.195,0.529,0.293,0.954,0.293s0.841-0.146,1.249-0.44c0.406-0.293,0.709-0.66,0.904-1.102v-1.346
					C138.201,29.444,137.059,30.048,137.059,31.256z"/>
				<path fill="#FFFFFF" d="M147.289,34.266v-7.758c0-1.224-0.049-2.08-0.146-2.57c-0.099-0.489-0.146-0.783-0.146-0.881
					c0-0.261,0.331-0.456,0.99-0.587c0.66-0.131,1.154-0.196,1.48-0.196s0.543,0.033,0.648,0.098s0.191,0.168,0.258,0.307
					c0.064,0.139,0.113,0.253,0.146,0.343c0.031,0.09,0.067,0.24,0.108,0.452c0.041,0.213,0.069,0.343,0.086,0.392
					c0.394-0.521,0.91-0.962,1.556-1.321c0.645-0.358,1.334-0.538,2.067-0.538c1.681,0,2.756,0.62,3.229,1.859
					c0.408-0.521,0.945-0.962,1.615-1.321c0.668-0.358,1.387-0.538,2.153-0.538c1.224,0,2.125,0.322,2.704,0.966
					c0.579,0.646,0.869,1.645,0.869,2.998v8.297c0,0.522-0.49,0.783-1.469,0.783h-0.687c-0.979,0-1.469-0.261-1.469-0.783V26.51
					c0-1.012-0.479-1.518-1.443-1.518c-0.799,0-1.442,0.474-1.935,1.42v7.855c0,0.522-0.488,0.783-1.469,0.783h-0.685
					c-0.979,0-1.469-0.261-1.469-0.783v-7.758c0-1.012-0.481-1.518-1.444-1.518c-0.799,0-1.443,0.474-1.934,1.42v7.855
					c0,0.522-0.488,0.783-1.469,0.783h-0.685C147.777,35.049,147.289,34.788,147.289,34.266z"/>
				<path fill="#FFFFFF" d="M168.141,34.266V17.33c0-0.522,0.489-0.783,1.469-0.783h0.686c0.979,0,1.469,0.261,1.469,0.783v5.433
					c0.7-0.505,1.533-0.758,2.496-0.758c1.633,0,2.899,0.591,3.807,1.774c0.904,1.183,1.356,2.798,1.356,4.846
					s-0.424,3.654-1.271,4.821c-0.85,1.166-1.95,1.749-3.305,1.749c-0.734,0-1.392-0.171-1.971-0.514
					c-0.579-0.343-1.016-0.783-1.311-1.321l-0.243,1.053c-0.099,0.424-0.572,0.636-1.421,0.636h-0.293
					C168.63,35.049,168.141,34.788,168.141,34.266z M173.77,32.234c1.321,0,1.982-1.228,1.982-3.684c0-2.455-0.76-3.683-2.275-3.683
					c-0.588,0-1.16,0.155-1.715,0.465v5.457C172.316,31.753,172.986,32.234,173.77,32.234z"/>
				<path fill="#FFFFFF" d="M182.995,33.495c-1.013-1.134-1.519-2.77-1.519-4.907c0-2.137,0.506-3.769,1.519-4.895
					c1.011-1.126,2.487-1.688,4.43-1.688c1.941,0,3.414,0.562,4.417,1.688c1.004,1.126,1.506,2.757,1.506,4.895
					c0,2.138-0.502,3.773-1.506,4.907c-1.003,1.134-2.476,1.7-4.417,1.7C185.482,35.195,184.006,34.629,182.995,33.495z
					 M185.148,28.601c0,2.488,0.754,3.731,2.264,3.731s2.264-1.243,2.264-3.731c0-2.488-0.754-3.732-2.264-3.732
					C185.902,24.868,185.148,26.112,185.148,28.601z"/>
			</g>
			<g enable-background="new    ">
				<path fill="#FFFFFF" d="M134.954,73.896h-1.5c-1.628,0-2.442-0.441-2.442-1.328l1.157-11.228H120.6l-1.158,11.185
					c-0.086,0.914-0.984,1.371-2.698,1.371h-1.5c-1.63,0-2.442-0.441-2.442-1.328l2.871-27.469c0.085-0.914,0.985-1.371,2.7-1.371
					h1.499c1.628,0,2.441,0.443,2.441,1.328L121.2,55.686h11.569l1.113-10.586c0.086-0.914,0.986-1.371,2.699-1.371h1.5
					c1.629,0,2.443,0.443,2.443,1.328l-2.871,27.469C137.568,73.439,136.668,73.896,134.954,73.896z"/>
				<path fill="#FFFFFF" d="M143.824,64.77c0-3.742,0.828-6.897,2.484-9.47c0.856-1.313,2.078-2.35,3.664-3.106
					c1.586-0.756,3.448-1.135,5.592-1.135c3.057,0,5.371,0.799,6.942,2.398c1.57,1.602,2.354,3.941,2.354,7.027
					c0,4.343-1.043,7.707-3.127,10.092c-2.086,2.386-4.957,3.578-8.612,3.578c-3.058,0-5.371-0.801-6.942-2.399
					C144.609,70.156,143.824,67.827,143.824,64.77z M153.637,69.141c1.485,0,2.649-0.721,3.492-2.164
					c0.844-1.441,1.266-3.507,1.266-6.191c0-3.143-1.115-4.713-3.344-4.713c-1.514,0-2.693,0.722-3.535,2.164
					c-0.843,1.441-1.264,3.521-1.264,6.233C150.252,67.584,151.38,69.141,153.637,69.141z"/>
				<path fill="#FFFFFF" d="M169.62,55.471l-0.085-2.398c0-0.457,0.471-0.828,1.414-1.114c0.941-0.285,2.127-0.429,3.557-0.429
					c0.656,0,1.07,0.457,1.242,1.371c0.057,0.343,0.1,0.828,0.129,1.457c0.742-0.914,1.729-1.692,2.957-2.336
					c1.229-0.643,2.456-0.963,3.686-0.963c2.971,0,4.771,1.1,5.398,3.299c0.714-0.885,1.714-1.656,3-2.313
					c1.285-0.657,2.57-0.985,3.855-0.985c3.771,0,5.656,1.814,5.656,5.441l-1.07,11.229c0,0.941,0.429,1.414,1.285,1.414
					c0.229,0,0.485-0.043,0.771-0.129s0.442-0.129,0.472-0.129c0.229,0,0.344,0.215,0.344,0.643c0,0.43-0.102,1.229-0.301,2.399
					c-0.113,0.716-0.558,1.265-1.328,1.65c-0.771,0.385-1.586,0.578-2.441,0.578c-3.457,0-5.186-1.813-5.186-5.442l0.984-10.283
					c0-1.429-0.723-2.144-2.164-2.144s-2.722,0.813-3.835,2.442l-1.328,13.799c-0.086,0.914-0.985,1.371-2.7,1.371h-1.199
					c-0.801,0-1.406-0.129-1.82-0.387c-0.415-0.257-0.621-0.57-0.621-0.943c0.941-9.141,1.414-13.854,1.414-14.141
					c0-1.428-0.723-2.143-2.164-2.143c-1.443,0-2.723,0.829-3.836,2.484l-1.371,13.756c-0.086,0.914-0.986,1.371-2.699,1.371h-1.199
					c-0.801,0-1.408-0.129-1.822-0.386c-0.413-0.257-0.62-0.571-0.62-0.942l1.457-14.055
					C169.562,57.398,169.62,56.386,169.62,55.471z"/>
				<path fill="#FFFFFF" d="M212.236,68.22c0.756,0.614,1.734,0.921,2.936,0.921c1.199,0,2.312-0.156,3.342-0.472
					c1.028-0.313,1.864-0.628,2.508-0.942c0.643-0.313,1.006-0.472,1.092-0.472c0.229,0,0.344,0.2,0.344,0.601
					c0,0.429-0.043,1.035-0.128,1.821c-0.086,0.785-0.158,1.278-0.216,1.478c-0.313,1.059-1.241,1.822-2.784,2.294
					s-3.101,0.706-4.671,0.706c-3.4,0-5.936-0.827-7.606-2.484c-1.672-1.656-2.507-3.971-2.507-6.941c0-4.655,1.1-8.1,3.301-10.328
					c2.198-2.229,5.026-3.342,8.483-3.342c1.629,0,3.026,0.215,4.198,0.644c1.173,0.429,2.029,0.985,2.572,1.671
					c1.027,1.258,1.543,2.559,1.543,3.898c0,2.629-0.93,4.594-2.787,5.894c-1.856,1.3-4,1.949-6.428,1.949
					c-1.57,0-3.057-0.101-4.455-0.3C211.059,66.47,211.479,67.605,212.236,68.22z M215.9,56.07c-2.373,0-3.916,1.601-4.629,4.8
					h2.057c1.828,0,3.143-0.278,3.943-0.835c0.799-0.559,1.199-1.207,1.199-1.95C218.471,56.742,217.613,56.07,215.9,56.07z"/>
			</g>
			<path id="Shape_4_" fill="#FFFFFF" d="M43.421,33.131L28.446,45.377c0,0.018-0.003,0.044-0.016,0.076
				c-0.007,0.033-0.01,0.059-0.01,0.076v12.398c0,0.445,0.163,0.832,0.494,1.159c0.328,0.327,0.716,0.493,1.171,0.493h10.001v-9.917
				h6.668v9.917h9.998c0.451,0,0.842-0.166,1.17-0.493c0.329-0.326,0.498-0.714,0.498-1.159V45.529c0-0.066-0.01-0.119-0.03-0.152
				L43.421,33.131L43.421,33.131z"/>
			<path id="Shape_5_" fill="#FFFFFF" d="M64.122,42.589l-5.705-4.7V27.351c0-0.244-0.082-0.442-0.233-0.592
				c-0.157-0.158-0.356-0.234-0.602-0.234h-4.999c-0.24,0-0.441,0.076-0.594,0.234c-0.16,0.151-0.239,0.348-0.239,0.592v5.039
				l-6.353-5.271c-0.557-0.448-1.212-0.67-1.976-0.67c-0.767,0-1.425,0.222-1.984,0.67l-18.721,15.47
				c-0.172,0.137-0.267,0.322-0.283,0.553c-0.018,0.232,0.042,0.438,0.182,0.608l1.612,1.91c0.136,0.152,0.321,0.252,0.545,0.283
				c0.209,0.019,0.417-0.045,0.625-0.18L43.42,30.862l18.02,14.904c0.138,0.119,0.323,0.18,0.547,0.18h0.077
				c0.225-0.032,0.406-0.133,0.547-0.284l1.616-1.912c0.136-0.168,0.198-0.374,0.182-0.606
				C64.388,42.91,64.292,42.724,64.122,42.589L64.122,42.589L64.122,42.589z"/>
		</g>
	</g>
</g>
</svg>
