<?xml version="1.0" encoding="UTF-8" standalone="no"?>
<svg width="40px" height="34px" viewBox="0 0 40 34" version="1.1" xmlns="http://www.w3.org/2000/svg" xmlns:xlink="http://www.w3.org/1999/xlink">
    <!-- Generator: sketchtool 39.1 (31720) - http://www.bohemiancoding.com/sketch -->
    <title>A9B5D6CC-6E91-4C72-ABF0-5DE607A4E392</title>
    <desc>Created with sketchtool.</desc>
    <defs></defs>
    <g id="Page-1" stroke="none" stroke-width="1" fill="none" fill-rule="evenodd">
        <g id="T3-Mambo-home" transform="translate(-255.000000, -950.000000)">
            <g id="CMJN_AREAS_sanssignat" transform="translate(255.000000, 950.000000)">
                <g id="Group-3" transform="translate(0.000000, 25.453276)" fill="#FFFFFF">
                    <path d="M1.70758621,4.20383998 C1.41528736,5.34646069 1.8116092,6.86972358 3.67551724,6.86972358 C4.84735632,6.86972358 5.85471264,6.22101213 6.47034483,5.34646069 C6.7345977,4.99370142 6.92528736,4.59882855 7.04528736,4.20383998 C7.16517241,3.80896711 7.20068966,3.41397854 7.12586207,3.06133496 C6.99712644,2.17255283 6.32103448,1.48161208 5.09264368,1.48161208 C3.48287356,1.48161208 2.09747126,2.75080499 1.71149425,4.18972498 L1.70758621,4.20383998 L1.70758621,4.20383998 Z M7.47816092,8.0122286 L6.00965517,8.0122286 L6.36908046,6.672345 C5.55632184,7.70181433 4.31091954,8.23795288 3.09655172,8.23795288 C0.625402299,8.23795288 -0.328390805,6.31970142 0.246781609,4.17572568 C0.874712644,1.83425565 3.04505747,0.113382776 5.27597701,0.113382776 C6.80103448,0.113382776 7.54827586,0.959704214 7.70471264,1.69322136 L8.06781609,0.338991362 L9.53643678,0.338991362 L7.47816092,8.0122286 L7.47816092,8.0122286 Z" id="Fill-1"></path>
                    <path d="M11.7529885,0.338991362 L13.1367816,0.338991362 L12.834023,1.46749708 C13.514023,0.564715644 14.436092,0.127497775 15.4848276,0.113382776 L15.0912644,1.58018567 L14.9925287,1.58018567 C13.6087356,1.58018567 12.6842529,2.34181712 12.2756322,3.86519571 L11.1632184,8.0122286 L9.69471264,8.0122286 L11.7529885,0.338991362" id="Fill-2"></path>
                    <path d="M21.5525287,3.49855283 C21.7543678,2.48296711 21.0441379,1.34046209 19.5821839,1.36869209 C18.0852874,1.36869209 16.8197701,2.45485281 16.4690805,3.49855283 L21.5525287,3.49855283 L21.5525287,3.49855283 Z M16.1344828,4.64117355 C15.7888506,6.19266643 16.9325287,6.98252788 18.0903448,6.98252788 C19.1211494,6.98252788 20.016092,6.48896571 20.6552874,5.68487357 L22.1804598,5.68487357 C21.5862069,6.53119501 20.8793103,7.16590716 20.1163218,7.58901003 C19.3493103,8.0264593 18.5301149,8.23795288 17.7535632,8.23795288 C15.2401149,8.23795288 14.228046,6.22089643 14.7727586,4.18972498 C15.3631034,1.98928924 17.5888506,0.11326708 19.9188506,0.11326708 C21.0202299,0.11326708 21.9131034,0.522370648 22.4544828,1.2416571 C23.112069,2.15866923 23.1718391,3.35751854 22.7002299,4.64117355 L16.1344828,4.64117355 L16.1344828,4.64117355 Z" id="Fill-3"></path>
                    <path d="M25.5708046,4.20383998 C25.2785057,5.34646069 25.6745977,6.86972358 27.5386207,6.86972358 C28.7104598,6.86972358 29.7178161,6.22101213 30.3335632,5.34646069 C30.5975862,4.99370142 30.7882759,4.59882855 30.9083908,4.20383998 C31.0282759,3.80896711 31.0637931,3.41397854 30.9889655,3.06133496 C30.8601149,2.17255283 30.1842529,1.48161208 28.9556322,1.48161208 C27.3458621,1.48161208 25.9604598,2.75080499 25.5744828,4.18972498 L25.5708046,4.20383998 L25.5708046,4.20383998 Z M31.3412644,8.0122286 L29.8727586,8.0122286 L30.2321839,6.672345 C29.4193103,7.70181433 28.174023,8.23795288 26.9598851,8.23795288 C24.4887356,8.23795288 23.5347126,6.31970142 24.1098851,4.17572568 C24.737931,1.83425565 26.9081609,0.113382776 29.1391954,0.113382776 C30.6641379,0.113382776 31.4113793,0.959704214 31.5678161,1.69322136 L31.9310345,0.338991362 L33.3994253,0.338991362 L31.3412644,8.0122286 L31.3412644,8.0122286 Z" id="Fill-4"></path>
                    <path d="M38.4678161,2.34193282 C38.6266667,1.74956566 38.3805747,1.29823279 37.6282759,1.31223209 C36.9083908,1.31223209 36.3843678,1.79179496 36.2621839,2.29970352 C36.1278161,2.90618567 36.6026437,3.18813856 37.3612644,3.41397854 C38.446092,3.73839211 39.6402299,4.07692069 39.2401149,5.72721857 C38.8673563,7.22248285 37.3522989,8.23795288 35.8271264,8.23795288 C34.6128736,8.23795288 33.2873563,7.54666504 33.6857471,5.79767786 L35.1403448,5.79767786 C34.9470115,6.72868929 35.612069,7.03898787 36.1627586,7.03898787 C36.8689655,7.03898787 37.551954,6.54531001 37.726092,5.89648285 C37.9162069,5.13485141 37.4055172,4.88089713 36.1568966,4.42944856 C35.1705747,4.10515068 34.4597701,3.59735782 34.7558621,2.44073781 C35.1456322,0.987934212 36.5662069,0.11326708 37.964023,0.11326708 C39.0232184,0.11326708 40.2668966,0.635174941 39.9221839,2.34193282 L38.4678161,2.34193282" id="Fill-5"></path>
                </g>
                <path d="M25.5134483,10.5567464 C25.0216092,11.0556306 25.0247126,11.8614582 25.5203448,12.3565244 L25.6003448,12.4364708 L25.9951724,12.0359288 C26.0287356,12.001914 26.0455172,11.9847909 26.0455172,11.9847909 L27.3816092,10.629751 L27.3016092,10.5499203 C27.0549425,10.303602 26.7329885,10.1806164 26.4109195,10.1806164 C26.0857471,10.1806164 25.7605747,10.3060316 25.5134483,10.5567464" id="Fill-6"></path>
                <path d="M35.5602299,0.0742772882 L35.557931,0.0742772882 C35.557931,0.0742772882 35.344023,0.0789051566 34.9696552,0.0873510165 C34.5952874,0.0883922869 34.0611494,0.126109415 33.4212644,0.178404328 C33.1024138,0.217047029 32.7557471,0.249210715 32.3914943,0.302315505 C32.2097701,0.331586773 32.0231034,0.361667917 31.8322989,0.392327546 C31.7368966,0.407830905 31.6404598,0.423449961 31.5429885,0.43930041 C31.4463218,0.459084548 31.3488506,0.479100079 31.2504598,0.499231306 C31.0537931,0.540187942 30.8537931,0.581838758 30.6514943,0.624183754 C30.4489655,0.666413053 30.2477011,0.724377105 30.0429885,0.774936567 C29.632069,0.872237501 29.2235632,1.00274339 28.8133333,1.12769584 C27.1762069,1.64405026 25.6217241,2.39330216 24.5102299,3.04050955 C24.2277011,3.19519606 23.9818391,3.35867551 23.7596552,3.49647029 C23.6489655,3.56611971 23.5452874,3.63137266 23.4496552,3.69176634 C23.3562069,3.75563092 23.2704598,3.81428915 23.1928736,3.86739394 C22.883908,4.08108577 22.7073563,4.2031458 22.7073563,4.2031458 C22.7073563,4.2031458 22.6503448,4.23993735 22.5496552,4.31768554 C22.4482759,4.39462385 22.2995402,4.50719675 22.1102299,4.65042928 C21.9181609,4.79030661 21.6965517,4.97495856 21.4422989,5.18656784 C21.3164368,5.29370299 21.1762069,5.40049106 21.0401149,5.52671617 C20.9022989,5.65120583 20.7573563,5.78194311 20.6063218,5.91846523 C19.3998851,7.01168345 17.9547126,8.65978309 16.8055172,10.5119717 C16.2337931,11.4387024 15.7331034,12.4090507 15.3245977,13.3454999 C14.907931,14.2794037 14.612069,15.1893583 14.376092,15.9719309 C14.1506897,16.7586685 14.0056322,17.4255444 13.912069,17.8936533 C13.8289655,18.3634976 13.7816092,18.6322611 13.7816092,18.6322611 C13.7816092,18.6322611 13.7745977,18.6715979 13.7606897,18.7507345 C14.1773563,18.815409 14.3855172,18.847804 14.3855172,18.847804 L15.0103448,18.9447579 L15.6350575,19.0418274 C15.6350575,19.0418274 15.8434483,19.0741068 16.26,19.138897 C16.2724138,19.0691318 16.2786207,19.0340757 16.2786207,19.0340757 C16.2786207,19.0340757 16.3204598,18.7968975 16.3937931,18.381662 C16.4768966,17.968509 16.6048276,17.3796128 16.8035632,16.6847383 C17.0131034,15.994029 17.2724138,15.1898211 17.6413793,14.3652507 C18.0026437,13.5381349 18.4448276,12.6803595 18.9502299,11.8605326 C19.9674713,10.223077 21.245977,8.76275316 22.3149425,7.79483448 C22.4487356,7.67393142 22.5768966,7.55811901 22.6988506,7.44786005 C22.8190805,7.33551854 22.944023,7.24180421 23.0554023,7.14670151 C23.2806897,6.95938854 23.4764368,6.79509921 23.6468966,6.67188221 C23.8144828,6.54496292 23.9462069,6.44500096 24.035977,6.37708699 C24.1248276,6.30766896 24.1756322,6.27538958 24.1756322,6.27538958 C24.1756322,6.27538958 24.332069,6.16744455 24.6057471,5.97839613 C24.6743678,5.93130756 24.7501149,5.87912835 24.8327586,5.82232126 C24.9175862,5.76921647 25.0095402,5.71148381 25.1075862,5.65004886 C25.3045977,5.52822023 25.5217241,5.38221098 25.7722989,5.24626734 C26.7566667,4.67356862 28.132069,4.0095852 29.5811494,3.55293029 C31.0275862,3.08944926 32.5278161,2.81466958 33.6618391,2.71204659 C34.2293103,2.66692488 34.7029885,2.63175308 35.0357471,2.63175308 C35.368046,2.6240014 35.558046,2.61948922 35.558046,2.61948922 L35.5602299,2.61948922 C35.5602299,2.61948922 36.2852874,2.61648111 37.0078161,2.67282541 C37.0155172,2.67351959 37.0231034,2.67398238 37.0231034,2.67398238 L33.2631034,16.505177 L27.3816092,10.629751 C27.3816092,10.629751 27.3548276,10.6031407 27.3016092,10.5499203 C27.0047126,10.8510788 26.856092,11.0016002 26.856092,11.0016002 L25.9656322,11.9049601 C25.9656322,11.9049601 25.8171264,12.0553658 25.5203448,12.3565244 C25.5734483,12.4098606 25.6003448,12.4364708 25.6003448,12.4364708 L33.0191954,19.847655 L33.02,19.8483492 C33.5156322,20.3435311 34.3162069,20.340523 34.8081609,19.8416388 C34.966092,19.6815145 35.0742529,19.4840202 35.1302299,19.2809725 L35.1304598,19.2798155 L39.8524138,1.91026839 L39.8526437,1.90922712 L39.8541379,1.90402077 C40.0377011,1.22869907 39.6426437,0.531394992 38.9716092,0.346395951 C38.9225287,0.332975133 38.8662069,0.321636855 38.8171264,0.314232266 L38.8158621,0.314116569 C38.8158621,0.314116569 38.0078161,0.191130966 37.1925287,0.134323881 C36.4572414,0.0770540092 35.7198851,0.0741615915 35.5828736,0.0741615915 C35.568046,0.0741615915 35.5602299,0.0742772882 35.5602299,0.0742772882" id="Fill-8" fill="#FFFFFF"></path>
                <path d="M13.7606897,18.7507345 C13.6375862,19.4423694 14.0955172,20.1004523 14.7826437,20.2243635 C15.4687356,20.348159 16.1247126,19.8894215 16.2491954,19.199522 L16.26,19.138897 L16.2786207,19.0340757 C15.8624138,18.9673187 15.6543678,18.9337667 15.6543678,18.9337667 L15.03,18.8331105 L14.4058621,18.7326858 C14.4058621,18.7326858 14.3929885,18.7306033 14.3673563,18.7264382 L14.3664368,18.7263225 C14.3637931,18.7258597 14.3610345,18.7253969 14.358046,18.7249341 L14.2989655,18.715447 C14.2988506,18.715447 14.2986207,18.715447 14.2983908,18.7153313 L14.2834483,18.7129017 C14.1806897,18.6964727 14.0134483,18.6695154 13.7816092,18.6322611 L13.7606897,18.7507345" id="Fill-10"></path>
            </g>
        </g>
    </g>
</svg>